<?xml version="1.0" encoding="utf-8"?>
<!-- Generator: Adobe Illustrator 16.0.0, SVG Export Plug-In . SVG Version: 6.00 Build 0)  -->
<!DOCTYPE svg PUBLIC "-//W3C//DTD SVG 1.1//EN" "http://www.w3.org/Graphics/SVG/1.1/DTD/svg11.dtd">
<svg version="1.1" id="Layer_1" xmlns="http://www.w3.org/2000/svg" xmlns:xlink="http://www.w3.org/1999/xlink" x="0px" y="0px"
	 width="468px" height="288px" viewBox="0 0 468 288" enable-background="new 0 0 468 288" xml:space="preserve">
<g>
	<g>
		<defs>
			<rect id="SVGID_1_" y="0" width="468" height="288"/>
		</defs>
		<linearGradient id="SVGID_2_" gradientUnits="userSpaceOnUse" x1="417" y1="-38.9995" x2="36.8419" y2="341.1585">
			<stop  offset="0" style="stop-color:#008ACD"/>
			<stop  offset="0.2511" style="stop-color:#4764C2"/>
			<stop  offset="0.6204" style="stop-color:#A92FB4"/>
			<stop  offset="0.8782" style="stop-color:#E70DAB"/>
			<stop  offset="1" style="stop-color:#FF00A7"/>
		</linearGradient>
		<use xlink:href="#SVGID_1_"  overflow="visible" fill="url(#SVGID_2_)"/>
		<clipPath id="SVGID_3_">
			<use xlink:href="#SVGID_1_"  overflow="visible"/>
		</clipPath>
		<linearGradient id="SVGID_4_" gradientUnits="userSpaceOnUse" x1="53.7241" y1="65.6616" x2="274.7239" y2="229.6614">
			<stop  offset="0" style="stop-color:#008ACD"/>
			<stop  offset="0.2511" style="stop-color:#4764C2"/>
			<stop  offset="0.6204" style="stop-color:#A92FB4"/>
			<stop  offset="0.8782" style="stop-color:#E70DAB"/>
			<stop  offset="1" style="stop-color:#FF00A7"/>
		</linearGradient>
		<path opacity="0.7" clip-path="url(#SVGID_3_)" fill="url(#SVGID_4_)" d="M318.152,57.232C311.125,5.42,258.623,5.712,206.829-8.9
			H-12.539v247.16c4.096,5.445,8.812,10.486,14.289,15.026c74.221,61.516,140.245-40.276,140.966-41.026
			c19.739-20.572,34.172-37.114,59.436-51.148c24.47-13.593,52.305-19.763,76.286-34.519
			C302.182,111.981,322.672,90.56,318.152,57.232z"/>
		<linearGradient id="SVGID_5_" gradientUnits="userSpaceOnUse" x1="272.1152" y1="31.7837" x2="325.115" y2="393.7837">
			<stop  offset="0" style="stop-color:#008ACD"/>
			<stop  offset="0.2511" style="stop-color:#4764C2"/>
			<stop  offset="0.6204" style="stop-color:#A92FB4"/>
			<stop  offset="0.8782" style="stop-color:#E70DAB"/>
			<stop  offset="1" style="stop-color:#FF00A7"/>
		</linearGradient>
		<path clip-path="url(#SVGID_3_)" fill="url(#SVGID_5_)" d="M476.461-8.9H252.604c-52.719,43.587-33.417,87.223-120.879,138.045
			c-66.676,38.743-64.661,90.285,20.186,100.754c58.941,7.271,89.588-14.703,141.189-36.599
			c64.145-27.217,119.817-23.453,183.361-9.227V-8.9z"/>
		<linearGradient id="SVGID_6_" gradientUnits="userSpaceOnUse" x1="258.0088" y1="100.1543" x2="352.0087" y2="367.1544">
			<stop  offset="0" style="stop-color:#008ACD"/>
			<stop  offset="0.2511" style="stop-color:#4764C2"/>
			<stop  offset="0.6204" style="stop-color:#A92FB4"/>
			<stop  offset="0.8782" style="stop-color:#E70DAB"/>
			<stop  offset="1" style="stop-color:#FF00A7"/>
		</linearGradient>
		<path clip-path="url(#SVGID_3_)" fill="url(#SVGID_6_)" d="M488.461-19.147c-23.846-25.344-48.63-39.514-92.965-23.411
			C278.912-0.212,281.031,165.41,168.198,218.199c-51.292,23.997-88.268,51.506-112.862,79.998l0.259,0.902h432.866V-19.147z"/>
		<g clip-path="url(#SVGID_3_)">
			<g>
				<g>
					<g>
						<g>
							
								<rect x="382.894" y="-14.828" transform="matrix(0.7071 0.7071 -0.7071 0.7071 243.5256 -216.5527)" fill="#FFFFFF" width="0.541" height="401.026"/>
						</g>
					</g>
					<g>
						<g>
							
								<rect x="379.277" y="-18.155" transform="matrix(0.7071 0.7071 -0.7071 0.7071 239.8986 -215.0585)" fill="#FFFFFF" width="0.541" height="400.418"/>
						</g>
					</g>
					<g>
						<g>
							
								<rect x="375.821" y="-21.924" transform="matrix(0.7071 0.7071 -0.7071 0.7071 236.2039 -213.7257)" fill="#FFFFFF" width="0.541" height="400.369"/>
						</g>
					</g>
					<g>
						<g>
							
								<rect x="371.419" y="-23.416" transform="matrix(0.7076 0.7067 -0.7067 0.7076 232.6549 -211.3582)" fill="#FFFFFF" width="0.542" height="397.659"/>
						</g>
					</g>
					<g>
						<g>
							
								<rect x="367.969" y="-27.211" transform="matrix(0.7071 0.7071 -0.7071 0.7071 229.2043 -210.1202)" fill="#FFFFFF" width="0.541" height="397.649"/>
						</g>
					</g>
					<g>
						<g>
							
								<rect x="365.12" y="-32.962" transform="matrix(0.7071 0.7071 -0.7071 0.7071 225.2579 -209.395)" fill="#FFFFFF" width="0.541" height="400.349"/>
						</g>
					</g>
					<g>
						<g>
							
								<rect x="361.323" y="-36.422" transform="matrix(0.7071 0.7071 -0.7071 0.7071 221.7052 -207.7203)" fill="#FFFFFF" width="0.541" height="400.368"/>
						</g>
					</g>
					<g>
						<g>
							
								<rect x="357.529" y="-39.903" transform="matrix(0.7067 0.7076 -0.7076 0.7067 218.3844 -206.1392)" fill="#FFFFFF" width="0.541" height="400.418"/>
						</g>
					</g>
					<g>
						<g>
							
								<rect x="353.898" y="-43.824" transform="matrix(0.7071 0.7071 -0.7071 0.7071 214.5287 -204.5421)" fill="#FFFFFF" width="0.541" height="401.025"/>
						</g>
					</g>
					<g>
						<g>
							
								<rect x="349.123" y="-43.465" transform="matrix(0.7076 0.7067 -0.7067 0.7076 211.1537 -201.8023)" fill="#FFFFFF" width="0.542" height="395.359"/>
						</g>
					</g>
				</g>
				<g>
					<g>
						<g>
							
								<linearGradient id="SVGID_7_" gradientUnits="userSpaceOnUse" x1="209.4224" y1="2881.248" x2="525.1405" y2="2881.248" gradientTransform="matrix(1 0 0 1 0 -2695.5625)">
								<stop  offset="0" style="stop-color:#918D60"/>
								<stop  offset="0.3772" style="stop-color:#555338"/>
								<stop  offset="0.799" style="stop-color:#181710"/>
								<stop  offset="1" style="stop-color:#000000"/>
							</linearGradient>
							<path fill="url(#SVGID_7_)" d="M241.382,327.72c-0.064,0-0.128-0.024-0.177-0.073c-0.098-0.098-0.098-0.257,0-0.354
								L524.772,43.725c0.098-0.098,0.255-0.098,0.354,0c0.098,0.098,0.098,0.256,0,0.354L241.559,327.646
								C241.51,327.695,241.446,327.72,241.382,327.72z"/>
						</g>
						<g>
							
								<linearGradient id="SVGID_8_" gradientUnits="userSpaceOnUse" x1="209.4219" y1="2881.248" x2="525.1411" y2="2881.248" gradientTransform="matrix(1 0 0 1 0 -2695.5625)">
								<stop  offset="0" style="stop-color:#918D60"/>
								<stop  offset="0.3772" style="stop-color:#555338"/>
								<stop  offset="0.799" style="stop-color:#181710"/>
								<stop  offset="1" style="stop-color:#000000"/>
							</linearGradient>
							<path fill="url(#SVGID_8_)" d="M241.381,327.719c-0.064,0-0.128-0.024-0.177-0.073c-0.098-0.098-0.098-0.256,0-0.354
								L524.772,43.725c0.098-0.098,0.255-0.098,0.354,0c0.098,0.098,0.098,0.256,0,0.354L241.558,327.646
								C241.509,327.694,241.445,327.719,241.381,327.719z"/>
						</g>
					</g>
					<g>
						<g>
							
								<linearGradient id="SVGID_9_" gradientUnits="userSpaceOnUse" x1="209.4229" y1="2877.6152" x2="525.1411" y2="2877.6152" gradientTransform="matrix(1 0 0 1 0 -2695.5625)">
								<stop  offset="0" style="stop-color:#918D60"/>
								<stop  offset="0.3772" style="stop-color:#555338"/>
								<stop  offset="0.799" style="stop-color:#181710"/>
								<stop  offset="1" style="stop-color:#000000"/>
							</linearGradient>
							<path fill="url(#SVGID_9_)" d="M237.979,323.873c-0.064,0-0.128-0.024-0.177-0.073c-0.098-0.097-0.098-0.256,0-0.354
								L520.94,40.308c0.098-0.098,0.255-0.098,0.354,0c0.098,0.098,0.098,0.256,0,0.354L238.155,323.8
								C238.106,323.849,238.043,323.873,237.979,323.873z"/>
						</g>
						<g>
							
								<linearGradient id="SVGID_10_" gradientUnits="userSpaceOnUse" x1="209.4229" y1="2877.6152" x2="525.1411" y2="2877.6152" gradientTransform="matrix(1 0 0 1 0 -2695.5625)">
								<stop  offset="0" style="stop-color:#918D60"/>
								<stop  offset="0.3772" style="stop-color:#555338"/>
								<stop  offset="0.799" style="stop-color:#181710"/>
								<stop  offset="1" style="stop-color:#000000"/>
							</linearGradient>
							<path fill="url(#SVGID_10_)" d="M237.979,323.873c-0.064,0-0.128-0.024-0.177-0.073c-0.098-0.097-0.098-0.256,0-0.354
								L520.94,40.308c0.098-0.098,0.255-0.098,0.354,0c0.098,0.098,0.098,0.256,0,0.354L238.155,323.8
								C238.106,323.849,238.043,323.873,237.979,323.873z"/>
						</g>
					</g>
					<g>
						<g>
							
								<linearGradient id="SVGID_11_" gradientUnits="userSpaceOnUse" x1="209.4219" y1="2873.8223" x2="525.1406" y2="2873.8223" gradientTransform="matrix(1 0 0 1 0 -2695.5625)">
								<stop  offset="0" style="stop-color:#918D60"/>
								<stop  offset="0.3772" style="stop-color:#555338"/>
								<stop  offset="0.799" style="stop-color:#181710"/>
								<stop  offset="1" style="stop-color:#000000"/>
							</linearGradient>
							<path fill="url(#SVGID_11_)" d="M234.54,320.062c-0.065,0-0.128-0.024-0.177-0.073c-0.098-0.098-0.098-0.256,0-0.354
								L517.467,36.532c0.098-0.098,0.256-0.098,0.354,0s0.098,0.256,0,0.354L234.717,319.988
								C234.668,320.037,234.604,320.062,234.54,320.062z"/>
						</g>
						<g>
							
								<linearGradient id="SVGID_12_" gradientUnits="userSpaceOnUse" x1="209.4224" y1="2873.8223" x2="525.1411" y2="2873.8223" gradientTransform="matrix(1 0 0 1 0 -2695.5625)">
								<stop  offset="0" style="stop-color:#918D60"/>
								<stop  offset="0.3772" style="stop-color:#555338"/>
								<stop  offset="0.799" style="stop-color:#181710"/>
								<stop  offset="1" style="stop-color:#000000"/>
							</linearGradient>
							<path fill="url(#SVGID_12_)" d="M234.54,320.062c-0.065,0-0.128-0.024-0.177-0.073c-0.098-0.098-0.098-0.256,0-0.354
								L517.467,36.531c0.098-0.098,0.256-0.098,0.354,0s0.098,0.256,0,0.354L234.717,319.988
								C234.668,320.037,234.604,320.062,234.54,320.062z"/>
						</g>
					</g>
					<g>
						<g>
							
								<linearGradient id="SVGID_13_" gradientUnits="userSpaceOnUse" x1="209.4219" y1="2870.9746" x2="525.14" y2="2870.9746" gradientTransform="matrix(1 0 0 1 0 -2695.5625)">
								<stop  offset="0" style="stop-color:#918D60"/>
								<stop  offset="0.3772" style="stop-color:#555338"/>
								<stop  offset="0.799" style="stop-color:#181710"/>
								<stop  offset="1" style="stop-color:#000000"/>
							</linearGradient>
							<path fill="url(#SVGID_13_)" d="M231.096,316.257c-0.064,0-0.128-0.024-0.177-0.073c-0.098-0.098-0.098-0.256,0-0.354
								L512.106,34.643c0.098-0.098,0.256-0.098,0.354,0s0.098,0.256,0,0.354L231.272,316.184
								C231.224,316.232,231.16,316.257,231.096,316.257z"/>
						</g>
						<g>
							
								<linearGradient id="SVGID_14_" gradientUnits="userSpaceOnUse" x1="209.4219" y1="2870.9746" x2="525.14" y2="2870.9746" gradientTransform="matrix(1 0 0 1 0 -2695.5625)">
								<stop  offset="0" style="stop-color:#918D60"/>
								<stop  offset="0.3772" style="stop-color:#555338"/>
								<stop  offset="0.799" style="stop-color:#181710"/>
								<stop  offset="1" style="stop-color:#000000"/>
							</linearGradient>
							<path fill="url(#SVGID_14_)" d="M231.096,316.257c-0.064,0-0.128-0.024-0.177-0.073c-0.098-0.098-0.098-0.256,0-0.354
								L512.106,34.643c0.098-0.098,0.256-0.098,0.354,0s0.098,0.256,0,0.354L231.272,316.184
								C231.224,316.232,231.16,316.257,231.096,316.257z"/>
						</g>
					</g>
					<g>
						<g>
							
								<linearGradient id="SVGID_15_" gradientUnits="userSpaceOnUse" x1="209.4224" y1="2867.1758" x2="525.1402" y2="2867.1758" gradientTransform="matrix(1 0 0 1 0 -2695.5625)">
								<stop  offset="0" style="stop-color:#918D60"/>
								<stop  offset="0.3772" style="stop-color:#555338"/>
								<stop  offset="0.799" style="stop-color:#181710"/>
								<stop  offset="1" style="stop-color:#000000"/>
							</linearGradient>
							<path fill="url(#SVGID_15_)" d="M227.649,312.454c-0.064,0-0.128-0.024-0.177-0.073c-0.098-0.098-0.098-0.256,0-0.354
								l281.18-281.18c0.098-0.098,0.256-0.098,0.354,0c0.098,0.098,0.098,0.255,0,0.353l-281.18,281.18
								C227.777,312.43,227.714,312.454,227.649,312.454z"/>
						</g>
						<g>
							
								<linearGradient id="SVGID_16_" gradientUnits="userSpaceOnUse" x1="209.4224" y1="2867.1758" x2="525.1413" y2="2867.1758" gradientTransform="matrix(1 0 0 1 0 -2695.5625)">
								<stop  offset="0" style="stop-color:#918D60"/>
								<stop  offset="0.3772" style="stop-color:#555338"/>
								<stop  offset="0.799" style="stop-color:#181710"/>
								<stop  offset="1" style="stop-color:#000000"/>
							</linearGradient>
							<path fill="url(#SVGID_16_)" d="M227.649,312.454c-0.064,0-0.128-0.024-0.177-0.073c-0.098-0.098-0.098-0.256,0-0.354
								l281.181-281.18c0.098-0.098,0.255-0.098,0.354,0c0.098,0.098,0.098,0.255,0,0.353l-281.181,281.18
								C227.777,312.43,227.714,312.454,227.649,312.454z"/>
						</g>
					</g>
					<g>
						<g>
							
								<linearGradient id="SVGID_17_" gradientUnits="userSpaceOnUse" x1="209.4219" y1="2862.7754" x2="525.1396" y2="2862.7754" gradientTransform="matrix(1 0 0 1 0 -2695.5625)">
								<stop  offset="0" style="stop-color:#918D60"/>
								<stop  offset="0.3772" style="stop-color:#555338"/>
								<stop  offset="0.799" style="stop-color:#181710"/>
								<stop  offset="1" style="stop-color:#000000"/>
							</linearGradient>
							<path fill="url(#SVGID_17_)" d="M223.846,309.008c-0.064,0-0.128-0.025-0.176-0.074c-0.098-0.097-0.098-0.256,0-0.354
								L506.76,25.491c0.098-0.098,0.256-0.098,0.354,0s0.098,0.256,0,0.354l-283.09,283.089
								C223.975,308.982,223.911,309.008,223.846,309.008z"/>
						</g>
						<g>
							
								<linearGradient id="SVGID_18_" gradientUnits="userSpaceOnUse" x1="209.4224" y1="2862.7754" x2="525.139" y2="2862.7754" gradientTransform="matrix(1 0 0 1 0 -2695.5625)">
								<stop  offset="0" style="stop-color:#918D60"/>
								<stop  offset="0.3772" style="stop-color:#555338"/>
								<stop  offset="0.799" style="stop-color:#181710"/>
								<stop  offset="1" style="stop-color:#000000"/>
							</linearGradient>
							<path fill="url(#SVGID_18_)" d="M223.846,309.008c-0.064,0-0.128-0.025-0.176-0.074c-0.098-0.097-0.098-0.256,0-0.354
								L506.759,25.491c0.098-0.098,0.256-0.098,0.353,0c0.099,0.098,0.099,0.256,0,0.354L224.023,308.934
								C223.975,308.982,223.911,309.008,223.846,309.008z"/>
						</g>
					</g>
					<g>
						<g>
							
								<linearGradient id="SVGID_19_" gradientUnits="userSpaceOnUse" x1="209.4219" y1="2859.3242" x2="525.1412" y2="2859.3242" gradientTransform="matrix(1 0 0 1 0 -2695.5625)">
								<stop  offset="0" style="stop-color:#918D60"/>
								<stop  offset="0.3772" style="stop-color:#555338"/>
								<stop  offset="0.799" style="stop-color:#181710"/>
								<stop  offset="1" style="stop-color:#000000"/>
							</linearGradient>
							<path fill="url(#SVGID_19_)" d="M220.042,305.563c-0.064,0-0.128-0.024-0.177-0.073c-0.098-0.098-0.098-0.256,0-0.354
								L502.969,22.033c0.098-0.098,0.256-0.098,0.354,0s0.098,0.256,0,0.354L220.218,305.49
								C220.17,305.539,220.106,305.563,220.042,305.563z"/>
						</g>
						<g>
							
								<linearGradient id="SVGID_20_" gradientUnits="userSpaceOnUse" x1="209.4219" y1="2859.3242" x2="525.1401" y2="2859.3242" gradientTransform="matrix(1 0 0 1 0 -2695.5625)">
								<stop  offset="0" style="stop-color:#918D60"/>
								<stop  offset="0.3772" style="stop-color:#555338"/>
								<stop  offset="0.799" style="stop-color:#181710"/>
								<stop  offset="1" style="stop-color:#000000"/>
							</linearGradient>
							<path fill="url(#SVGID_20_)" d="M220.042,305.563c-0.064,0-0.128-0.024-0.177-0.073c-0.098-0.098-0.098-0.256,0-0.354
								L502.968,22.033c0.098-0.098,0.256-0.098,0.354,0s0.098,0.256,0,0.354L220.218,305.49
								C220.17,305.539,220.106,305.563,220.042,305.563z"/>
						</g>
					</g>
					<g>
						<g>
							
								<linearGradient id="SVGID_21_" gradientUnits="userSpaceOnUse" x1="209.4224" y1="2855.8672" x2="525.1406" y2="2855.8672" gradientTransform="matrix(1 0 0 1 0 -2695.5625)">
								<stop  offset="0" style="stop-color:#918D60"/>
								<stop  offset="0.3772" style="stop-color:#555338"/>
								<stop  offset="0.799" style="stop-color:#181710"/>
								<stop  offset="1" style="stop-color:#000000"/>
							</linearGradient>
							<path fill="url(#SVGID_21_)" d="M216.23,302.125c-0.064,0-0.128-0.023-0.177-0.072c-0.098-0.099-0.098-0.257,0-0.354
								L499.191,18.56c0.099-0.098,0.257-0.098,0.355,0c0.096,0.098,0.096,0.256,0,0.354l-283.14,283.14
								C216.358,302.102,216.295,302.125,216.23,302.125z"/>
						</g>
						<g>
							
								<linearGradient id="SVGID_22_" gradientUnits="userSpaceOnUse" x1="209.4224" y1="2855.8672" x2="525.1406" y2="2855.8672" gradientTransform="matrix(1 0 0 1 0 -2695.5625)">
								<stop  offset="0" style="stop-color:#918D60"/>
								<stop  offset="0.3772" style="stop-color:#555338"/>
								<stop  offset="0.799" style="stop-color:#181710"/>
								<stop  offset="1" style="stop-color:#000000"/>
							</linearGradient>
							<path fill="url(#SVGID_22_)" d="M216.23,302.125c-0.064,0-0.128-0.023-0.177-0.072c-0.098-0.099-0.098-0.257,0-0.354
								L499.191,18.56c0.099-0.098,0.257-0.098,0.355,0c0.096,0.098,0.096,0.256,0,0.354l-283.14,283.14
								C216.358,302.102,216.295,302.125,216.23,302.125z"/>
						</g>
					</g>
					<g>
						<g>
							
								<linearGradient id="SVGID_23_" gradientUnits="userSpaceOnUse" x1="209.4224" y1="2852.25" x2="525.1405" y2="2852.25" gradientTransform="matrix(1 0 0 1 0 -2695.5625)">
								<stop  offset="0" style="stop-color:#918D60"/>
								<stop  offset="0.3772" style="stop-color:#555338"/>
								<stop  offset="0.799" style="stop-color:#181710"/>
								<stop  offset="1" style="stop-color:#000000"/>
							</linearGradient>
							<path fill="url(#SVGID_23_)" d="M212.385,298.722c-0.065,0-0.128-0.024-0.177-0.073c-0.098-0.098-0.098-0.256,0-0.354
								L495.775,14.728c0.098-0.098,0.256-0.098,0.354,0s0.098,0.255,0,0.354L212.562,298.648
								C212.513,298.697,212.449,298.722,212.385,298.722z"/>
						</g>
						<g>
							
								<linearGradient id="SVGID_24_" gradientUnits="userSpaceOnUse" x1="209.4229" y1="2852.25" x2="525.141" y2="2852.25" gradientTransform="matrix(1 0 0 1 0 -2695.5625)">
								<stop  offset="0" style="stop-color:#918D60"/>
								<stop  offset="0.3772" style="stop-color:#555338"/>
								<stop  offset="0.799" style="stop-color:#181710"/>
								<stop  offset="1" style="stop-color:#000000"/>
							</linearGradient>
							<path fill="url(#SVGID_24_)" d="M212.385,298.722c-0.065,0-0.128-0.024-0.177-0.073c-0.098-0.098-0.098-0.256,0-0.354
								L495.775,14.728c0.098-0.098,0.256-0.098,0.354,0s0.098,0.255,0,0.354L212.562,298.648
								C212.513,298.697,212.449,298.722,212.385,298.722z"/>
						</g>
					</g>
					<g>
						<g>
							
								<linearGradient id="SVGID_25_" gradientUnits="userSpaceOnUse" x1="209.3633" y1="2849.7754" x2="525.0811" y2="2849.7754" gradientTransform="matrix(1 0 0 1 0 -2695.5625)">
								<stop  offset="0" style="stop-color:#918D60"/>
								<stop  offset="0.3772" style="stop-color:#555338"/>
								<stop  offset="0.799" style="stop-color:#181710"/>
								<stop  offset="1" style="stop-color:#000000"/>
							</linearGradient>
							<path fill="url(#SVGID_25_)" d="M209.613,294.244c-0.064,0-0.128-0.024-0.177-0.073c-0.098-0.099-0.098-0.257,0-0.354
								l279.56-279.56c0.098-0.098,0.257-0.098,0.354,0s0.098,0.256,0,0.354L209.79,294.171
								C209.741,294.22,209.678,294.244,209.613,294.244z"/>
						</g>
						<g>
							
								<linearGradient id="SVGID_26_" gradientUnits="userSpaceOnUse" x1="209.3633" y1="2849.7754" x2="525.0811" y2="2849.7754" gradientTransform="matrix(1 0 0 1 0 -2695.5625)">
								<stop  offset="0" style="stop-color:#918D60"/>
								<stop  offset="0.3772" style="stop-color:#555338"/>
								<stop  offset="0.799" style="stop-color:#181710"/>
								<stop  offset="1" style="stop-color:#000000"/>
							</linearGradient>
							<path fill="url(#SVGID_26_)" d="M209.613,294.243c-0.064,0-0.128-0.024-0.177-0.073c-0.098-0.098-0.098-0.256,0-0.354
								l279.56-279.56c0.098-0.098,0.257-0.098,0.354,0s0.098,0.256,0,0.354L209.79,294.17
								C209.741,294.219,209.678,294.243,209.613,294.243z"/>
						</g>
					</g>
				</g>
			</g>
			<g opacity="0.5">
				<g>
					<g>
						<g>
							
								<rect x="251.74" y="-163.284" transform="matrix(0.7071 0.7071 -0.7071 0.7071 176.804 -135.5375)" fill="#FFFFFF" width="0.541" height="617.872"/>
						</g>
					</g>
					<g>
						<g>
							
								<rect x="246.165" y="-168.411" transform="matrix(0.7071 0.7071 -0.7071 0.7071 171.2151 -133.2347)" fill="#FFFFFF" width="0.541" height="616.938"/>
						</g>
					</g>
					<g>
						<g>
							
								<rect x="240.842" y="-174.218" transform="matrix(0.7071 0.7071 -0.7071 0.7071 165.5223 -131.1824)" fill="#FFFFFF" width="0.541" height="616.859"/>
						</g>
					</g>
					<g>
						<g>
							
								<rect x="234.058" y="-176.516" transform="matrix(0.7071 0.7071 -0.7071 0.7071 160.4345 -127.6704)" fill="#FFFFFF" width="0.541" height="612.685"/>
						</g>
					</g>
					<g>
						<g>
							
								<rect x="228.743" y="-182.362" transform="matrix(0.7071 0.7071 -0.7071 0.7071 154.7385 -125.6264)" fill="#FFFFFF" width="0.541" height="612.669"/>
						</g>
					</g>
					<g>
						<g>
							
								<rect x="224.354" y="-191.223" transform="matrix(0.7076 0.7067 -0.7067 0.7076 148.504 -124.4608)" fill="#FFFFFF" width="0.542" height="616.829"/>
						</g>
					</g>
					<g>
						<g>
							
								<rect x="218.503" y="-196.556" transform="matrix(0.7071 0.7071 -0.7071 0.7071 143.1841 -121.9294)" fill="#FFFFFF" width="0.541" height="616.861"/>
						</g>
					</g>
					<g>
						<g>
							
								<rect x="212.658" y="-201.919" transform="matrix(0.7071 0.7071 -0.7071 0.7071 137.7075 -119.3556)" fill="#FFFFFF" width="0.541" height="616.937"/>
						</g>
					</g>
					<g>
						<g>
							
								<rect x="207.063" y="-207.961" transform="matrix(0.7071 0.7071 -0.7071 0.7071 132.1268 -117.032)" fill="#FFFFFF" width="0.541" height="617.872"/>
						</g>
					</g>
					<g>
						<g>
							
								<rect x="199.706" y="-207.408" transform="matrix(0.7076 0.7067 -0.7067 0.7076 127.1425 -112.9004)" fill="#FFFFFF" width="0.542" height="609.141"/>
						</g>
					</g>
				</g>
				<g>
					<g>
						<g>
							
								<linearGradient id="SVGID_27_" gradientUnits="userSpaceOnUse" x1="-15.5781" y1="2841.2148" x2="470.6509" y2="2841.2148" gradientTransform="matrix(1 0 0 1 0 -2695.5625)">
								<stop  offset="0" style="stop-color:#918D60"/>
								<stop  offset="0.3772" style="stop-color:#555338"/>
								<stop  offset="0.799" style="stop-color:#181710"/>
								<stop  offset="1" style="stop-color:#000000"/>
							</linearGradient>
							<path fill="url(#SVGID_27_)" d="M33.559,364.353c-0.064,0-0.127-0.024-0.176-0.073c-0.098-0.098-0.098-0.256,0-0.353
								L470.284-72.975c0.098-0.097,0.256-0.097,0.354,0c0.098,0.098,0.098,0.256,0,0.354l-436.902,436.9
								C33.687,364.328,33.624,364.353,33.559,364.353z"/>
						</g>
						<g>
							
								<linearGradient id="SVGID_28_" gradientUnits="userSpaceOnUse" x1="-15.5786" y1="2841.2148" x2="470.6504" y2="2841.2148" gradientTransform="matrix(1 0 0 1 0 -2695.5625)">
								<stop  offset="0" style="stop-color:#918D60"/>
								<stop  offset="0.3772" style="stop-color:#555338"/>
								<stop  offset="0.799" style="stop-color:#181710"/>
								<stop  offset="1" style="stop-color:#000000"/>
							</linearGradient>
							<path fill="url(#SVGID_28_)" d="M33.559,364.353c-0.064,0-0.127-0.024-0.176-0.073c-0.098-0.098-0.098-0.256,0-0.353
								L470.284-72.975c0.098-0.097,0.256-0.097,0.354,0c0.098,0.098,0.098,0.256,0,0.354l-436.902,436.9
								C33.687,364.328,33.624,364.353,33.559,364.353z"/>
						</g>
					</g>
					<g>
						<g>
							
								<linearGradient id="SVGID_29_" gradientUnits="userSpaceOnUse" x1="-15.5781" y1="2835.6191" x2="470.6535" y2="2835.6191" gradientTransform="matrix(1 0 0 1 0 -2695.5625)">
								<stop  offset="0" style="stop-color:#918D60"/>
								<stop  offset="0.3772" style="stop-color:#555338"/>
								<stop  offset="0.799" style="stop-color:#181710"/>
								<stop  offset="1" style="stop-color:#000000"/>
							</linearGradient>
							<path fill="url(#SVGID_29_)" d="M28.315,358.428c-0.064,0-0.128-0.024-0.177-0.073c-0.098-0.098-0.098-0.256,0-0.354
								l436.24-436.24c0.098-0.098,0.256-0.098,0.354,0c0.098,0.097,0.098,0.256,0,0.354l-436.24,436.24
								C28.443,358.403,28.379,358.428,28.315,358.428z"/>
						</g>
						<g>
							
								<linearGradient id="SVGID_30_" gradientUnits="userSpaceOnUse" x1="-15.5776" y1="2835.6191" x2="470.6507" y2="2835.6191" gradientTransform="matrix(1 0 0 1 0 -2695.5625)">
								<stop  offset="0" style="stop-color:#918D60"/>
								<stop  offset="0.3772" style="stop-color:#555338"/>
								<stop  offset="0.799" style="stop-color:#181710"/>
								<stop  offset="1" style="stop-color:#000000"/>
							</linearGradient>
							<path fill="url(#SVGID_30_)" d="M28.315,358.428c-0.064,0-0.128-0.024-0.177-0.073c-0.098-0.098-0.098-0.256,0-0.354
								l436.24-436.24c0.099-0.098,0.257-0.098,0.354,0c0.098,0.097,0.098,0.256,0,0.354L28.492,358.354
								C28.443,358.403,28.379,358.428,28.315,358.428z"/>
						</g>
					</g>
					<g>
						<g>
							
								<linearGradient id="SVGID_31_" gradientUnits="userSpaceOnUse" x1="-15.5781" y1="2829.7734" x2="470.6494" y2="2829.7734" gradientTransform="matrix(1 0 0 1 0 -2695.5625)">
								<stop  offset="0" style="stop-color:#918D60"/>
								<stop  offset="0.3772" style="stop-color:#555338"/>
								<stop  offset="0.799" style="stop-color:#181710"/>
								<stop  offset="1" style="stop-color:#000000"/>
							</linearGradient>
							<path fill="url(#SVGID_31_)" d="M23.019,352.556c-0.064,0-0.128-0.024-0.177-0.073c-0.098-0.098-0.098-0.256,0-0.354
								L459.027-84.058c0.099-0.098,0.257-0.098,0.354,0c0.097,0.098,0.097,0.256,0,0.354L23.195,352.482
								C23.146,352.531,23.083,352.556,23.019,352.556z"/>
						</g>
						<g>
							
								<linearGradient id="SVGID_32_" gradientUnits="userSpaceOnUse" x1="-15.5776" y1="2829.7734" x2="470.6493" y2="2829.7734" gradientTransform="matrix(1 0 0 1 0 -2695.5625)">
								<stop  offset="0" style="stop-color:#918D60"/>
								<stop  offset="0.3772" style="stop-color:#555338"/>
								<stop  offset="0.799" style="stop-color:#181710"/>
								<stop  offset="1" style="stop-color:#000000"/>
							</linearGradient>
							<path fill="url(#SVGID_32_)" d="M23.019,352.556c-0.064,0-0.127-0.024-0.177-0.073c-0.098-0.098-0.098-0.256,0-0.354
								L459.027-84.058c0.099-0.098,0.257-0.098,0.354,0c0.097,0.098,0.097,0.256,0,0.354L23.196,352.482
								C23.147,352.531,23.084,352.556,23.019,352.556z"/>
						</g>
					</g>
					<g>
						<g>
							
								<linearGradient id="SVGID_33_" gradientUnits="userSpaceOnUse" x1="-15.5781" y1="2825.3877" x2="470.6544" y2="2825.3877" gradientTransform="matrix(1 0 0 1 0 -2695.5625)">
								<stop  offset="0" style="stop-color:#918D60"/>
								<stop  offset="0.3772" style="stop-color:#555338"/>
								<stop  offset="0.799" style="stop-color:#181710"/>
								<stop  offset="1" style="stop-color:#000000"/>
							</linearGradient>
							<path fill="url(#SVGID_33_)" d="M17.712,346.692c-0.064,0-0.128-0.024-0.177-0.073c-0.098-0.098-0.098-0.256,0-0.354
								L450.769-86.967c0.098-0.098,0.256-0.098,0.354,0c0.098,0.098,0.098,0.256,0,0.354L17.889,346.619
								C17.84,346.668,17.776,346.692,17.712,346.692z"/>
						</g>
						<g>
							
								<linearGradient id="SVGID_34_" gradientUnits="userSpaceOnUse" x1="-15.5771" y1="2825.3877" x2="470.6542" y2="2825.3877" gradientTransform="matrix(1 0 0 1 0 -2695.5625)">
								<stop  offset="0" style="stop-color:#918D60"/>
								<stop  offset="0.3772" style="stop-color:#555338"/>
								<stop  offset="0.799" style="stop-color:#181710"/>
								<stop  offset="1" style="stop-color:#000000"/>
							</linearGradient>
							<path fill="url(#SVGID_34_)" d="M17.713,346.692c-0.065,0-0.128-0.024-0.177-0.073c-0.098-0.098-0.098-0.256,0-0.354
								L450.769-86.967c0.098-0.098,0.256-0.098,0.354,0c0.098,0.098,0.098,0.256,0,0.354L17.89,346.619
								C17.841,346.668,17.777,346.692,17.713,346.692z"/>
						</g>
					</g>
					<g>
						<g>
							
								<linearGradient id="SVGID_35_" gradientUnits="userSpaceOnUse" x1="-15.5781" y1="2819.5352" x2="470.6521" y2="2819.5352" gradientTransform="matrix(1 0 0 1 0 -2695.5625)">
								<stop  offset="0" style="stop-color:#918D60"/>
								<stop  offset="0.3772" style="stop-color:#555338"/>
								<stop  offset="0.799" style="stop-color:#181710"/>
								<stop  offset="1" style="stop-color:#000000"/>
							</linearGradient>
							<path fill="url(#SVGID_35_)" d="M12.401,340.834c-0.064,0-0.128-0.024-0.177-0.073c-0.098-0.098-0.098-0.256,0-0.354
								L445.448-92.815c0.099-0.098,0.256-0.098,0.354,0s0.098,0.256,0,0.354L12.578,340.761
								C12.529,340.81,12.466,340.834,12.401,340.834z"/>
						</g>
						<g>
							
								<linearGradient id="SVGID_36_" gradientUnits="userSpaceOnUse" x1="-15.5771" y1="2819.5352" x2="470.652" y2="2819.5352" gradientTransform="matrix(1 0 0 1 0 -2695.5625)">
								<stop  offset="0" style="stop-color:#918D60"/>
								<stop  offset="0.3772" style="stop-color:#555338"/>
								<stop  offset="0.799" style="stop-color:#181710"/>
								<stop  offset="1" style="stop-color:#000000"/>
							</linearGradient>
							<path fill="url(#SVGID_36_)" d="M12.402,340.834c-0.064,0-0.128-0.024-0.177-0.073c-0.098-0.098-0.098-0.256,0-0.354
								L445.448-92.815c0.099-0.098,0.256-0.098,0.354,0s0.098,0.256,0,0.354L12.579,340.761
								C12.53,340.81,12.467,340.834,12.402,340.834z"/>
						</g>
					</g>
					<g>
						<g>
							
								<linearGradient id="SVGID_37_" gradientUnits="userSpaceOnUse" x1="-15.5776" y1="2812.7539" x2="470.6533" y2="2812.7539" gradientTransform="matrix(1 0 0 1 0 -2695.5625)">
								<stop  offset="0" style="stop-color:#918D60"/>
								<stop  offset="0.3772" style="stop-color:#555338"/>
								<stop  offset="0.799" style="stop-color:#181710"/>
								<stop  offset="1" style="stop-color:#000000"/>
							</linearGradient>
							<path fill="url(#SVGID_37_)" d="M6.543,335.523c-0.064,0-0.128-0.024-0.177-0.073c-0.098-0.098-0.098-0.256,0-0.354
								l436.165-436.164c0.098-0.098,0.256-0.098,0.354,0s0.098,0.256,0,0.354L6.72,335.45
								C6.671,335.499,6.607,335.523,6.543,335.523z"/>
						</g>
						<g>
							
								<linearGradient id="SVGID_38_" gradientUnits="userSpaceOnUse" x1="-15.5781" y1="2812.7539" x2="470.6517" y2="2812.7539" gradientTransform="matrix(1 0 0 1 0 -2695.5625)">
								<stop  offset="0" style="stop-color:#918D60"/>
								<stop  offset="0.3772" style="stop-color:#555338"/>
								<stop  offset="0.799" style="stop-color:#181710"/>
								<stop  offset="1" style="stop-color:#000000"/>
							</linearGradient>
							<path fill="url(#SVGID_38_)" d="M6.543,335.523c-0.064,0-0.128-0.024-0.177-0.073c-0.098-0.098-0.098-0.256,0-0.354
								l436.163-436.164c0.099-0.098,0.257-0.098,0.354,0s0.098,0.256,0,0.354L6.72,335.45
								C6.671,335.499,6.607,335.523,6.543,335.523z"/>
						</g>
					</g>
					<g>
						<g>
							
								<linearGradient id="SVGID_39_" gradientUnits="userSpaceOnUse" x1="-15.5776" y1="2807.4355" x2="470.6509" y2="2807.4355" gradientTransform="matrix(1 0 0 1 0 -2695.5625)">
								<stop  offset="0" style="stop-color:#918D60"/>
								<stop  offset="0.3772" style="stop-color:#555338"/>
								<stop  offset="0.799" style="stop-color:#181710"/>
								<stop  offset="1" style="stop-color:#000000"/>
							</linearGradient>
							<path fill="url(#SVGID_39_)" d="M0.681,330.217c-0.064,0-0.128-0.024-0.177-0.073c-0.098-0.098-0.098-0.256,0-0.354
								L436.69-106.396c0.098-0.098,0.256-0.098,0.354,0c0.098,0.097,0.098,0.255,0,0.353L0.857,330.144
								C0.809,330.192,0.745,330.217,0.681,330.217z"/>
						</g>
						<g>
							
								<linearGradient id="SVGID_40_" gradientUnits="userSpaceOnUse" x1="-15.5776" y1="2807.4355" x2="470.6509" y2="2807.4355" gradientTransform="matrix(1 0 0 1 0 -2695.5625)">
								<stop  offset="0" style="stop-color:#918D60"/>
								<stop  offset="0.3772" style="stop-color:#555338"/>
								<stop  offset="0.799" style="stop-color:#181710"/>
								<stop  offset="1" style="stop-color:#000000"/>
							</linearGradient>
							<path fill="url(#SVGID_40_)" d="M0.681,330.217c-0.064,0-0.128-0.024-0.177-0.073c-0.098-0.098-0.098-0.256,0-0.354
								L436.69-106.396c0.098-0.098,0.256-0.098,0.354,0c0.098,0.097,0.098,0.255,0,0.353L0.857,330.144
								C0.809,330.192,0.745,330.217,0.681,330.217z"/>
						</g>
					</g>
					<g>
						<g>
							
								<linearGradient id="SVGID_41_" gradientUnits="userSpaceOnUse" x1="-15.5771" y1="2802.1113" x2="470.6545" y2="2802.1113" gradientTransform="matrix(1 0 0 1 0 -2695.5625)">
								<stop  offset="0" style="stop-color:#918D60"/>
								<stop  offset="0.3772" style="stop-color:#555338"/>
								<stop  offset="0.799" style="stop-color:#181710"/>
								<stop  offset="1" style="stop-color:#000000"/>
							</linearGradient>
							<path fill="url(#SVGID_41_)" d="M-5.191,324.92c-0.064,0-0.128-0.024-0.177-0.073c-0.098-0.098-0.098-0.256,0-0.354
								l436.24-436.24c0.098-0.098,0.256-0.098,0.354,0s0.098,0.256,0,0.354l-436.24,436.24
								C-5.063,324.896-5.127,324.92-5.191,324.92z"/>
						</g>
						<g>
							
								<linearGradient id="SVGID_42_" gradientUnits="userSpaceOnUse" x1="-15.5771" y1="2802.1113" x2="470.6545" y2="2802.1113" gradientTransform="matrix(1 0 0 1 0 -2695.5625)">
								<stop  offset="0" style="stop-color:#918D60"/>
								<stop  offset="0.3772" style="stop-color:#555338"/>
								<stop  offset="0.799" style="stop-color:#181710"/>
								<stop  offset="1" style="stop-color:#000000"/>
							</linearGradient>
							<path fill="url(#SVGID_42_)" d="M-5.191,324.92c-0.064,0-0.128-0.024-0.177-0.073c-0.098-0.098-0.098-0.256,0-0.354
								l436.24-436.24c0.098-0.098,0.256-0.098,0.354,0s0.098,0.256,0,0.354l-436.24,436.24
								C-5.063,324.896-5.127,324.92-5.191,324.92z"/>
						</g>
					</g>
					<g>
						<g>
							
								<linearGradient id="SVGID_43_" gradientUnits="userSpaceOnUse" x1="-15.5776" y1="2796.5371" x2="470.6508" y2="2796.5371" gradientTransform="matrix(1 0 0 1 0 -2695.5625)">
								<stop  offset="0" style="stop-color:#918D60"/>
								<stop  offset="0.3772" style="stop-color:#555338"/>
								<stop  offset="0.799" style="stop-color:#181710"/>
								<stop  offset="1" style="stop-color:#000000"/>
							</linearGradient>
							<path fill="url(#SVGID_43_)" d="M-11.117,319.676c-0.064,0-0.128-0.023-0.177-0.072c-0.098-0.098-0.098-0.256,0-0.354
								l436.901-436.902c0.098-0.098,0.256-0.098,0.354,0s0.098,0.256,0,0.354L-10.941,319.604
								C-10.99,319.652-11.053,319.676-11.117,319.676z"/>
						</g>
						<g>
							
								<linearGradient id="SVGID_44_" gradientUnits="userSpaceOnUse" x1="-15.5776" y1="2796.5371" x2="470.6508" y2="2796.5371" gradientTransform="matrix(1 0 0 1 0 -2695.5625)">
								<stop  offset="0" style="stop-color:#918D60"/>
								<stop  offset="0.3772" style="stop-color:#555338"/>
								<stop  offset="0.799" style="stop-color:#181710"/>
								<stop  offset="1" style="stop-color:#000000"/>
							</linearGradient>
							<path fill="url(#SVGID_44_)" d="M-11.117,319.676c-0.064,0-0.128-0.023-0.177-0.072c-0.098-0.098-0.098-0.256,0-0.354
								l436.901-436.902c0.098-0.098,0.256-0.098,0.354,0s0.098,0.256,0,0.354L-10.941,319.604
								C-10.99,319.652-11.053,319.676-11.117,319.676z"/>
						</g>
					</g>
					<g>
						<g>
							
								<linearGradient id="SVGID_45_" gradientUnits="userSpaceOnUse" x1="-15.6367" y1="2792.7246" x2="470.5939" y2="2792.7246" gradientTransform="matrix(1 0 0 1 0 -2695.5625)">
								<stop  offset="0" style="stop-color:#918D60"/>
								<stop  offset="0.3772" style="stop-color:#555338"/>
								<stop  offset="0.799" style="stop-color:#181710"/>
								<stop  offset="1" style="stop-color:#000000"/>
							</linearGradient>
							<path fill="url(#SVGID_45_)" d="M-15.387,312.776c-0.064,0-0.128-0.024-0.177-0.073c-0.098-0.098-0.098-0.256,0-0.354
								l430.728-430.727c0.098-0.098,0.256-0.098,0.354,0s0.098,0.256,0,0.354L-15.21,312.703
								C-15.259,312.752-15.322,312.776-15.387,312.776z"/>
						</g>
						<g>
							
								<linearGradient id="SVGID_46_" gradientUnits="userSpaceOnUse" x1="-15.6367" y1="2792.7246" x2="470.5939" y2="2792.7246" gradientTransform="matrix(1 0 0 1 0 -2695.5625)">
								<stop  offset="0" style="stop-color:#918D60"/>
								<stop  offset="0.3772" style="stop-color:#555338"/>
								<stop  offset="0.799" style="stop-color:#181710"/>
								<stop  offset="1" style="stop-color:#000000"/>
							</linearGradient>
							<path fill="url(#SVGID_46_)" d="M-15.387,312.776c-0.064,0-0.128-0.024-0.177-0.073c-0.098-0.098-0.098-0.256,0-0.354
								l430.728-430.727c0.098-0.098,0.256-0.098,0.354,0s0.098,0.256,0,0.354L-15.21,312.703
								C-15.259,312.752-15.322,312.776-15.387,312.776z"/>
						</g>
					</g>
				</g>
			</g>
			<g>
				<linearGradient id="SVGID_47_" gradientUnits="userSpaceOnUse" x1="97.4043" y1="155.2871" x2="353.1934" y2="155.2871">
					<stop  offset="0" style="stop-color:#918D60"/>
					<stop  offset="0.3772" style="stop-color:#555338"/>
					<stop  offset="0.799" style="stop-color:#181710"/>
					<stop  offset="1" style="stop-color:#000000"/>
				</linearGradient>
				<path fill="url(#SVGID_47_)" d="M165.802,319.62c-0.03,0-0.061-0.003-0.091-0.009c-31.27-5.777-57.672-25.838-65.699-49.917
					c-4.577-13.729-5.378-35.147,16.797-59.214c39.037-42.366,121.015-64.143,163.3-70.331
					c29.454-4.311,54.797-17.985,66.136-35.688c5.714-8.918,7.352-18.331,4.737-27.22c-7.854-26.703-46.611-35.725-133.766-31.138
					c-3.989,0.21-7.767,0.31-11.334,0.31c-43.646,0.001-56.665-14.866-60.531-24.226c-4.841-11.72,0.062-24.52,7.408-31.106
					c0.205-0.184,0.521-0.167,0.706,0.039c0.185,0.205,0.167,0.521-0.039,0.706c-7.084,6.352-11.815,18.688-7.151,29.979
					c3.769,9.125,16.544,23.608,59.563,23.609c3.565,0,7.332-0.099,11.324-0.309c87.715-4.616,126.766,4.612,134.778,31.854
					c2.699,9.176,1.021,18.872-4.854,28.042c-11.491,17.939-37.101,31.787-66.834,36.138
					c-42.154,6.169-123.861,27.858-162.708,70.02c-17.291,18.765-23.026,38.897-16.584,58.22
					c7.915,23.745,34.009,43.537,64.932,49.251c0.271,0.05,0.451,0.311,0.4,0.582C166.249,319.452,166.039,319.62,165.802,319.62z"
					/>
			</g>
			<g>
				<linearGradient id="SVGID_48_" gradientUnits="userSpaceOnUse" x1="-33.7061" y1="41.8809" x2="95.0957" y2="41.8809">
					<stop  offset="0" style="stop-color:#918D60"/>
					<stop  offset="0.3772" style="stop-color:#555338"/>
					<stop  offset="0.799" style="stop-color:#181710"/>
					<stop  offset="1" style="stop-color:#000000"/>
				</linearGradient>
				<path fill="url(#SVGID_48_)" d="M57.733,98.495c-1.992,0-4.093-0.074-6.308-0.229c-11.646-0.82-22.595-4.444-33.184-7.949
					C0.774,84.535-15.725,79.074-33,86.889c-0.249,0.114-0.548,0.003-0.661-0.249c-0.114-0.252-0.003-0.548,0.25-0.662
					c17.63-7.975,34.309-2.455,51.968,3.39c10.53,3.485,21.418,7.089,32.939,7.9c20.213,1.426,34.452-4.018,40.092-15.327
					c4.603-9.231,2.751-21.505-4.504-29.846C75.168,38.396,69.509,23.031,71.559,9.94c1.575-10.061,7.676-18.568,17.644-24.601
					c0.236-0.142,0.544-0.068,0.687,0.169c0.143,0.236,0.067,0.543-0.169,0.687c-9.707,5.875-15.646,14.14-17.173,23.9
					c-2.004,12.8,3.569,27.868,15.292,41.344c7.514,8.638,9.424,21.364,4.644,30.948C89.374,88.621,80.801,98.495,57.733,98.495z"/>
			</g>
			<g>
				<linearGradient id="SVGID_49_" gradientUnits="userSpaceOnUse" x1="191.814" y1="246.8223" x2="279.5391" y2="246.8223">
					<stop  offset="0" style="stop-color:#918D60"/>
					<stop  offset="0.3772" style="stop-color:#555338"/>
					<stop  offset="0.799" style="stop-color:#181710"/>
					<stop  offset="1" style="stop-color:#000000"/>
				</linearGradient>
				<path fill="url(#SVGID_49_)" d="M263.482,326.282c-0.039,0-0.079-0.005-0.119-0.015c-0.27-0.066-0.433-0.337-0.367-0.605
					c2.71-11.018,1.065-21.061-4.756-29.043c-7.634-10.467-22.23-17.182-40.048-18.422c-11.421-0.794-21.771-8.442-25.167-18.6
					c-2.4-7.177-3.28-21.951,17.804-40.259c8.816-7.655,19.121-12.835,29.085-17.844c16.439-8.264,31.968-16.069,38.657-33.81
					c0.097-0.259,0.383-0.39,0.645-0.292c0.258,0.098,0.389,0.386,0.291,0.645c-6.827,18.106-22.524,25.997-39.144,34.351
					c-9.911,4.981-20.159,10.133-28.878,17.705c-15.302,13.286-21.521,27.203-17.512,39.187c3.271,9.783,13.26,17.152,24.289,17.92
					c18.113,1.26,32.978,8.123,40.787,18.829c6,8.229,7.701,18.559,4.919,29.872C263.912,326.129,263.708,326.282,263.482,326.282z"
					/>
			</g>
			<g>
				<path fill="#FFFFFF" d="M190.961,98.35c-2.067,0-3.75-1.682-3.75-3.75c0-2.067,1.683-3.75,3.75-3.75
					c2.067,0,3.75,1.683,3.75,3.75C194.711,96.668,193.028,98.35,190.961,98.35z M190.961,91.35c-1.792,0-3.25,1.458-3.25,3.25
					s1.458,3.25,3.25,3.25s3.25-1.458,3.25-3.25S192.753,91.35,190.961,91.35z"/>
			</g>
			<g>
				<path fill="#FFFFFF" d="M68.211,229.85c-3.584,0-6.5-2.916-6.5-6.5s2.916-6.5,6.5-6.5s6.5,2.916,6.5,6.5
					S71.795,229.85,68.211,229.85z M68.211,217.35c-3.309,0-6,2.691-6,6s2.691,6,6,6c3.308,0,6-2.691,6-6
					S71.519,217.35,68.211,217.35z"/>
			</g>
			<g>
				<path fill="#FFFFFF" d="M361.711,103.85c-1.379,0-2.5-1.121-2.5-2.5c0-1.378,1.121-2.5,2.5-2.5s2.5,1.122,2.5,2.5
					C364.211,102.729,363.09,103.85,361.711,103.85z M361.711,99.35c-1.103,0-2,0.897-2,2c0,1.103,0.897,2,2,2c1.102,0,2-0.897,2-2
					C363.711,100.247,362.813,99.35,361.711,99.35z"/>
			</g>
			<g>
				<path fill="#FFFFFF" d="M423.211,230.85c-0.827,0-1.5-0.673-1.5-1.5s0.673-1.5,1.5-1.5s1.5,0.673,1.5,1.5
					S424.038,230.85,423.211,230.85z M423.211,228.35c-0.552,0-1,0.449-1,1c0,0.552,0.448,1,1,1c0.551,0,1-0.448,1-1
					C424.211,228.799,423.762,228.35,423.211,228.35z"/>
			</g>
			<g>
				<path fill="#FFFFFF" d="M115.211,73.85c-1.103,0-2-0.897-2-2c0-1.103,0.897-2,2-2c1.102,0,2,0.897,2,2
					C117.211,72.953,116.313,73.85,115.211,73.85z M115.211,70.35c-0.827,0-1.5,0.673-1.5,1.5s0.673,1.5,1.5,1.5s1.5-0.673,1.5-1.5
					S116.038,70.35,115.211,70.35z"/>
			</g>
			<g>
				<path fill="#FFFFFF" d="M44.961,69.85c-2.895,0-5.25-2.355-5.25-5.25c0-2.895,2.355-5.25,5.25-5.25s5.25,2.355,5.25,5.25
					C50.211,67.495,47.855,69.85,44.961,69.85z M44.961,59.85c-2.619,0-4.75,2.131-4.75,4.75s2.131,4.75,4.75,4.75
					s4.75-2.131,4.75-4.75S47.58,59.85,44.961,59.85z"/>
			</g>
			<g>
				<path fill="#FFFFFF" d="M401.461,50.684c-0.064,0-0.128-0.024-0.177-0.073c-0.098-0.098-0.098-0.256,0-0.354l60-60
					c0.098-0.098,0.256-0.098,0.354,0s0.098,0.256,0,0.354l-60,60C401.589,50.659,401.525,50.684,401.461,50.684z"/>
			</g>
			<g>
				<path fill="#FFFFFF" d="M15.461,247.35c-0.064,0-0.128-0.024-0.177-0.073c-0.098-0.098-0.098-0.256,0-0.354l35.667-35.666
					c0.098-0.098,0.256-0.098,0.354,0s0.098,0.256,0,0.354l-35.667,35.666C15.589,247.325,15.525,247.35,15.461,247.35z"/>
			</g>
		</g>
	</g>
</g>
</svg>
